<?xml version="1.0" encoding="UTF-8" standalone="no"?>
<svg
   viewBox="0 0 793.70079 1122.5197"
   width="793.70081"
   height="1122.5197"
   version="1.1"
   id="svg83"
   sodipodi:docname="moon-plam-rest-segmented.dxf"
   inkscape:version="1.2.1 (9c6d41e4, 2022-07-14)"
   inkscape:dataloss="true"
   xmlns:inkscape="http://www.inkscape.org/namespaces/inkscape"
   xmlns:sodipodi="http://sodipodi.sourceforge.net/DTD/sodipodi-0.dtd"
   xmlns="http://www.w3.org/2000/svg"
   xmlns:svg="http://www.w3.org/2000/svg">
  <sodipodi:namedview
     id="namedview85"
     pagecolor="#505050"
     bordercolor="#ffffff"
     borderopacity="1"
     inkscape:showpageshadow="0"
     inkscape:pageopacity="0"
     inkscape:pagecheckerboard="1"
     inkscape:deskcolor="#505050"
     showgrid="false"
     inkscape:zoom="1.9550688"
     inkscape:cx="26.341784"
     inkscape:cy="1116.329"
     inkscape:window-width="1439"
     inkscape:window-height="877"
     inkscape:window-x="0"
     inkscape:window-y="25"
     inkscape:window-maximized="0"
     inkscape:current-layer="g79" />
  <desc
     id="desc18">moon-plam-rest-segmented.dxf - scale = 1.000000, origin = (0.000000, 0.000000), method = manual</desc>
  <defs
     id="defs75" />
  <g
     inkscape:groupmode="layer"
     inkscape:label="0"
     id="g79">
    <path
       d="m 0,983.53086 c 19.593436,0 39.127522,-1.7684 58.493778,-4.47909 19.366256,-2.7107 38.581767,-6.56425 57.475632,-11.75313 9.86801,-2.71008 19.9859,-4.16919 30.12312,-4.16919 10.13721,0 20.27756,1.37863 30.12311,4.16919 16.15469,4.57878 30.98179,12.44064 43.67902,22.88462 12.69724,10.44394 23.01226,23.61064 30.88092,38.44384 4.66296,8.7901 8.56747,17.9069 10.90767,27.4811 2.3402,9.5741 3.20801,19.466 2.99918,29.4141 -0.41739,19.8835 -4.50772,39.3042 -12.27365,57.1937 -7.76592,17.8896 -18.77386,34.5474 -33.40108,48.0223 -17.8188,16.415 -37.57242,30.5164 -58.18612,43.0563 -20.61371,12.5398 -42.26749,23.4648 -64.988549,31.874 -7.130707,2.6391 -14.540514,4.4381 -21.941619,6.1443 -7.401105,1.7063 -14.873576,3.1292 -22.417069,4.082 -8.532132,1.0777 -17.108885,1.7419 -25.692957,2.1732 -8.584072,0.4313 -17.1814646,0.4132 -25.781386,0.4132 -8.5999214,0 -17.197314,0.018 -25.781386,-0.4132 -8.584072,-0.4313 -17.160825,-1.0955 -25.692957,-2.1732 -7.543493,-0.9528 -15.015964,-2.3757 -22.417069,-4.082 -7.401105,-1.7062 -14.810912,-3.5052 -21.941619,-6.1443 -22.721059,-8.4092 -44.374839,-19.3342 -64.988549,-31.874 -20.6137,-12.5399 -40.36732,-26.6413 -58.18612,-43.0563 -14.62722,-13.4749 -25.63516,-30.1327 -33.40108,-48.0223 -7.76593,-17.8895 -11.85626,-37.3102 -12.27365,-57.1937 -0.20883,-9.9481 0.65898,-19.84 2.99918,-29.4141 2.3402,-9.5742 6.24471,-18.691 10.90767,-27.4811 7.86866,-14.8332 18.18368,-27.9999 30.88092,-38.44384 12.69723,-10.44398 27.52433,-18.30584 43.67902,-22.88462 9.84555,-2.79056 19.9859,-4.16919 30.12311,-4.16919 10.13722,0 20.25511,1.45911 30.12312,4.16919 18.893865,5.18888 38.109376,9.04243 57.475632,11.75313 19.366256,2.71069 38.900342,4.47909 58.493778,4.47909 z"
       style="fill:none;stroke:#000000"
       id="path77"
       sodipodi:nodetypes="sssssssssssssssssssssssssssssssss" />
  </g>
</svg>
